<svg viewBox="0 0 96 96" xmlns="http://www.w3.org/2000/svg" xmlns:xlink="http://www.w3.org/1999/xlink" id="Icons_PresentationMedia" overflow="hidden"><path d="M41 27 61 39.9 41 52.81 41 27Z"/><path d="M76 22 76 58 20 58 20 22ZM84 60 82 60 82 19 84 19C85.1046 19 86 18.1046 86 17 86 15.8954 85.1046 15 84 15L50 15 50 13C50 11.8954 49.1046 11 48 11 46.8954 11 46 11.8954 46 13L46 15 12 15C10.8954 15 10 15.8954 10 17 10 18.1046 10.8954 19 12 19L14 19 14 60 12 60C10.8954 60 10 60.8954 10 62 10 63.1046 10.8954 64 12 64L42.54 64 27.14 79.4C26.3585 80.1898 26.3652 81.4635 27.155 82.245 27.9448 83.0265 29.2185 83.0198 30 82.23L46 66.23 46 84C46 85.1046 46.8954 86 48 86 49.1046 86 50 85.1046 50 84L50 66.2 66 82.2C66.7815 82.9815 68.0485 82.9815 68.83 82.2 69.6115 81.4185 69.6115 80.1515 68.83 79.37L53.46 64 84 64C85.1046 64 86 63.1046 86 62 86 60.8954 85.1046 60 84 60Z"/></svg>